<svg xmlns="http://www.w3.org/2000/svg" viewBox="0 0 64 64">
  <rect x="5" y="5" width="54" height="54" rx="16" fill="#091321" />
  <path d="M19.5 17.5c-4.6 3.9-7.5 8.8-7.5 14.5s2.9 10.6 7.5 14.5" fill="none" stroke="#f1b35d" stroke-width="4.2" stroke-linecap="round" stroke-linejoin="round" />
  <path d="M44.5 17.5C49.1 21.4 52 26.3 52 32s-2.9 10.6-7.5 14.5" fill="none" stroke="#f1b35d" stroke-width="4.2" stroke-linecap="round" stroke-linejoin="round" />
  <path d="M32 40v4" fill="none" stroke="#f7fbff" stroke-width="3" stroke-linecap="round" />
  <path d="M32 42 25 46" fill="none" stroke="#7cb0ff" stroke-width="2.8" stroke-linecap="round" />
  <path d="M32 42 39 46" fill="none" stroke="#7cb0ff" stroke-width="2.8" stroke-linecap="round" />
  <circle cx="25" cy="46" r="2.6" fill="#7cb0ff" />
  <circle cx="39" cy="46" r="2.6" fill="#7cb0ff" />
  <ellipse cx="32" cy="34.5" rx="6.5" ry="5.5" fill="#f6b7c7" />
  <circle cx="23.5" cy="27" r="2.8" fill="#ffdbe3" />
  <circle cx="29" cy="21.5" r="2.8" fill="#ffdbe3" />
  <circle cx="35" cy="21.5" r="2.8" fill="#ffdbe3" />
  <circle cx="40.5" cy="27" r="2.8" fill="#ffdbe3" />
</svg>