<svg xmlns="http://www.w3.org/2000/svg" viewBox="0 0 64 64">
  <rect x="5" y="5" width="54" height="54" rx="16" fill="#091321" />
  <path d="M19.5 17.5c-4.6 3.9-7.5 8.8-7.5 14.5s2.9 10.6 7.5 14.5" fill="none" stroke="#f1b35d" stroke-width="4.2" stroke-linecap="round" stroke-linejoin="round" />
  <path d="M44.5 17.5C49.1 21.4 52 26.3 52 32s-2.9 10.6-7.5 14.5" fill="none" stroke="#f1b35d" stroke-width="4.2" stroke-linecap="round" stroke-linejoin="round" />
  <path d="M32 32v11" fill="none" stroke="#f7fbff" stroke-width="3" stroke-linecap="round" />
  <path d="M26 42c0-5.2 2.1-9.3 6-13" fill="none" stroke="#7cb0ff" stroke-width="2.7" stroke-linecap="round" />
  <path d="M38 42c0-5.2-2.1-9.3-6-13" fill="none" stroke="#7cb0ff" stroke-width="2.7" stroke-linecap="round" />
  <rect x="22" y="40" width="5" height="5" rx="1.4" fill="#dce9ff" />
  <rect x="37" y="40" width="5" height="5" rx="1.4" fill="#dce9ff" />
  <ellipse cx="32" cy="29" rx="5.4" ry="4.5" fill="#f6b7c7" />
  <circle cx="24.5" cy="23.5" r="2.3" fill="#ffdbe3" />
  <circle cx="29.2" cy="19.5" r="2.3" fill="#ffdbe3" />
  <circle cx="34.8" cy="19.5" r="2.3" fill="#ffdbe3" />
  <circle cx="39.5" cy="23.5" r="2.3" fill="#ffdbe3" />
</svg>